<svg xmlns="http://www.w3.org/2000/svg" width="59.241" height="44.43" viewBox="0 0 59.241 44.43"><defs><style>.a{fill:#fd4c25;}.b{fill:#fff;}</style></defs><g transform="translate(-0.001 -0.465)"><path class="a" d="M29.621,44.895a184.466,184.466,0,0,1-22.1-1.333,7.452,7.452,0,0,1-6.4-6.3,95.323,95.323,0,0,1,0-29.18,7.452,7.452,0,0,1,6.4-6.3,184.822,184.822,0,0,1,44.2,0,7.452,7.452,0,0,1,6.395,6.3,95.3,95.3,0,0,1,0,29.18,7.452,7.452,0,0,1-6.395,6.3A184.477,184.477,0,0,1,29.621,44.895Zm0,0" transform="translate(0 0)"/><path class="b" d="M191.965,108.723v-25.2l20.158,12.6Zm0,0" transform="translate(-169.75 -73.447)"/></g></svg>